<svg xmlns="http://www.w3.org/2000/svg" viewBox="0 0 290.36 93.63"><defs><style>.cls-1{fill:#1d1d1b;}.cls-2{fill:#39afe5;}.cls-3,.cls-4,.cls-5{fill:#fff;}.cls-3{opacity:0.52;}.cls-4{opacity:0.89;}</style></defs><title>final logo circle3</title><g id="Layer_1" data-name="Layer 1"><path class="cls-1" d="M124.7,42a4.88,4.88,0,0,1,1.24-3.7,4.6,4.6,0,0,1,6.15,0A4.8,4.8,0,0,1,133.37,42a4.84,4.84,0,0,1-1.28,3.69A4.25,4.25,0,0,1,129,47a4.21,4.21,0,0,1-3.1-1.22A4.94,4.94,0,0,1,124.7,42Zm8,61.67h-7.35V55.19h7.35Z" transform="translate(-17.03 -29.48)"/><path class="cls-1" d="M174,97.2h-.4q-5.09,7.39-15.22,7.39-9.53,0-14.81-6.51t-5.29-18.5q0-12,5.31-18.64T158.4,54.3q9.87,0,15.14,7.17h.57L173.8,58l-.18-3.41V34.82H181v68.89h-6Zm-14.69,1.24q7.51,0,10.91-4.1t3.38-13.21V79.58q0-10.32-3.43-14.72c-2.28-2.94-5.94-4.41-10.95-4.41a11.26,11.26,0,0,0-9.9,5q-3.42,5-3.43,14.19t3.41,14Q152.73,98.44,159.33,98.44Z" transform="translate(-17.03 -29.48)"/><path class="cls-1" d="M209.8,104.59q-10.76,0-17-6.55T186.6,79.85q0-11.75,5.78-18.64T207.9,54.3q9.12,0,14.43,6t5.31,15.83v4.64H194.22q.21,8.55,4.31,13t11.54,4.42a39.15,39.15,0,0,0,15.49-3.27v6.55a39.18,39.18,0,0,1-7.37,2.41A41.21,41.21,0,0,1,209.8,104.59Zm-2-44.14a12,12,0,0,0-9.32,3.81q-3.48,3.81-4.1,10.54h25.37c0-4.64-1-8.18-3.1-10.65S211.64,60.45,207.81,60.45Z" transform="translate(-17.03 -29.48)"/><path class="cls-1" d="M262.76,103.71l-1.47-6.91h-.35A20.43,20.43,0,0,1,253.7,103a22.18,22.18,0,0,1-9,1.61q-7.22,0-11.31-3.72t-4.09-10.58q0-14.7,23.5-15.4l8.24-.27v-3q0-5.72-2.46-8.43c-1.64-1.82-4.25-2.73-7.86-2.73q-6.06,0-13.72,3.72l-2.26-5.62a35.46,35.46,0,0,1,16.43-4.16q8.67,0,12.86,3.85t4.18,12.35v33.12Zm-16.61-5.18q6.87,0,10.78-3.77c2.62-2.5,3.92-6,3.92-10.53V79.85l-7.35.3q-8.76.31-12.64,2.73a8.21,8.21,0,0,0-3.87,7.5,7.57,7.57,0,0,0,2.41,6.07A10.06,10.06,0,0,0,246.15,98.53Z" transform="translate(-17.03 -29.48)"/><path class="cls-1" d="M307.39,90.47a12.14,12.14,0,0,1-5.05,10.45q-5,3.67-14.17,3.67-9.65,0-15.05-3V94.72a36.33,36.33,0,0,0,7.51,2.79,31.23,31.23,0,0,0,7.72,1c3.84,0,6.79-.62,8.86-1.84a6.34,6.34,0,0,0,.64-10.45q-2.46-2-9.59-4.76a52.58,52.58,0,0,1-9.63-4.4,13.28,13.28,0,0,1-4.25-4.27A11.16,11.16,0,0,1,273,67.1a10.89,10.89,0,0,1,4.83-9.37q4.81-3.43,13.23-3.43a38.64,38.64,0,0,1,15.32,3.19l-2.61,6a35.29,35.29,0,0,0-13.24-3q-5.22,0-7.88,1.64A5.07,5.07,0,0,0,280,66.61a5.54,5.54,0,0,0,1,3.32,9.85,9.85,0,0,0,3.21,2.61,72.32,72.32,0,0,0,8.5,3.59q8.63,3.14,11.67,6.33A11.15,11.15,0,0,1,307.39,90.47Z" transform="translate(-17.03 -29.48)"/></g><g id="Layer_2" data-name="Layer 2"><circle class="cls-2" cx="46.81" cy="46.81" r="46.81"/><path class="cls-3" d="M28.9,86a21,21,0,0,0,36.1.72L55.69,81a10.06,10.06,0,1,1,.24-10.29s0,.07,0,.1l9.57-5.22c0-.08-.08-.16-.12-.24A21,21,0,0,0,28.9,86Z" transform="translate(-17.03 -29.48)"/><path class="cls-4" d="M92,102.21A21,21,0,0,0,74.05,70.86L74,81.76a10.06,10.06,0,1,1-9,5.08l.06-.09-9.39-5.54-.15.23A21,21,0,0,0,92,102.21Z" transform="translate(-17.03 -29.48)"/><path class="cls-5" d="M74.21,39.79A21,21,0,0,0,55.85,70.87l9.52-5.31a10.06,10.06,0,1,1,8.84,5.26H74.1L74,81.71l.26,0a21,21,0,1,0,0-41.94Z" transform="translate(-17.03 -29.48)"/></g></svg>